<svg width="18" height="16" viewBox="0 0 18 16" fill="none" xmlns="http://www.w3.org/2000/svg">
<path d="M16.204 10.0957C15.4058 11.089 11.9135 14.0691 10.0976 15.5895C9.45898 16.1368 8.54102 16.1368 7.88248 15.5895C6.06652 14.0691 2.57428 11.089 1.77605 10.0957C0.558758 8.5955 0 7.15616 0 5.57491C0 4.05448 0.498891 2.65569 1.43681 1.62179C2.35477 0.567627 3.63193 0 5.02882 0C6.06652 0 7.02439 0.344631 7.84257 1.01362C8.2816 1.35825 8.68071 1.7637 9 2.22997C9.31929 1.78397 9.69845 1.35825 10.1375 1.01362C10.9756 0.344631 11.9335 0 12.9712 0C14.3481 0 15.6253 0.567627 16.5632 1.62179C17.4812 2.65569 18 4.05448 18 5.57491C18 7.15616 17.4213 8.5955 16.204 10.0957Z" fill="url(#paint0_radial_110_246)"/>
<path fill-rule="evenodd" clip-rule="evenodd" d="M16.204 10.0957C15.4058 11.089 11.9135 14.0691 10.0976 15.5895C9.45898 16.1368 8.54102 16.1368 7.88248 15.5895C6.06652 14.0691 2.57428 11.089 1.77605 10.0957C0.558758 8.5955 0 7.15616 0 5.57491C0 4.05448 0.498891 2.65569 1.43681 1.62179C2.35477 0.567627 3.63193 0 5.02882 0C6.06652 0 7.02439 0.344631 7.84257 1.01362C8.2816 1.35825 8.68071 1.7637 9 2.22997C9.31929 1.78397 9.69845 1.35825 10.1375 1.01362C10.9756 0.344631 11.9335 0 12.9712 0C14.3481 0 15.6253 0.567627 16.5632 1.62179C17.4812 2.65569 18 4.05448 18 5.57491C18 7.15616 17.4213 8.5955 16.204 10.0957ZM13.8492 11.6161C14.7273 10.8255 15.4656 10.1159 15.765 9.73076C16.3237 9.02122 16.7627 8.33196 17.0421 7.6427C17.3016 6.97371 17.4412 6.28445 17.4412 5.57491C17.4412 4.88565 17.3215 4.21666 17.102 3.60849C16.8825 3.02059 16.5632 2.47323 16.184 2.02724C16.1641 2.02724 16.1641 2.00697 16.1441 2.00697C15.745 1.5407 15.2461 1.1758 14.7073 0.932531C14.1685 0.689262 13.5898 0.567627 12.9712 0.567627C12.5122 0.567627 12.0732 0.648717 11.6541 0.790624C11.255 0.932531 10.8758 1.15553 10.5166 1.43934C10.4967 1.43934 10.4967 1.43934 10.4767 1.45961C10.2971 1.62179 10.0976 1.78397 9.93792 1.96642C9.75831 2.14888 9.61862 2.33133 9.47894 2.53405C9.43902 2.59487 9.37916 2.65569 9.31929 2.7165C9.05987 2.87868 8.70066 2.81787 8.54102 2.5746C8.38137 2.3516 8.22173 2.14888 8.06208 1.96642C7.90244 1.78397 7.70288 1.62179 7.52328 1.45961C7.50333 1.45961 7.50333 1.45961 7.50333 1.45961C7.12417 1.15553 6.74501 0.932531 6.32594 0.790624C5.92683 0.648717 5.4878 0.567627 5.02882 0.567627C4.4102 0.567627 3.83149 0.689262 3.29268 0.932531C2.75388 1.1758 2.25499 1.5407 1.83592 2.00697C1.43681 2.45296 1.11752 3.00032 0.898004 3.60849C0.678492 4.21666 0.558758 4.88565 0.558758 5.57491C0.558758 6.28445 0.698448 6.97371 0.957871 7.6427C1.21729 8.33196 1.63636 9.02122 2.21508 9.73076C2.51441 10.1159 3.25277 10.8255 4.15078 11.6161C5.4878 12.8122 7.14412 14.211 8.22173 15.1232L8.24168 15.1435C8.4612 15.3259 8.72062 15.4273 9 15.4273C9.25942 15.4273 9.51885 15.3259 9.73836 15.1435C10.816 14.2515 12.4922 12.8324 13.8492 11.6161Z" fill="white"/>
<path d="M17.1914 5.5752C17.1914 6.25105 17.0578 6.91007 16.8086 7.55273C16.5411 8.21115 16.1177 8.8786 15.5684 9.57617L15.5674 9.57715C15.2843 9.94138 14.5643 10.6357 13.6826 11.4297C12.3289 12.6431 10.6553 14.0604 9.5791 14.9512H9.57812C9.39748 15.1012 9.19352 15.1777 9 15.1777C8.7857 15.1777 8.58321 15.1007 8.40527 14.9541L8.39941 14.9482L8.3916 14.9395L8.38281 14.9326L6.44629 13.2861C5.73138 12.6738 4.98436 12.0264 4.31738 11.4297L4.31641 11.4287L3.67871 10.8555C3.08298 10.3086 2.62405 9.84986 2.41211 9.57715L2.40918 9.57227L2.2041 9.31348C1.74419 8.71186 1.408 8.13017 1.19141 7.55469V7.55273L1.10254 7.31055C0.910169 6.74476 0.808626 6.16652 0.808594 5.5752C0.808594 4.91465 0.923236 4.27404 1.13281 3.69336C1.34248 3.11246 1.64571 2.59277 2.02148 2.17285C2.41799 1.73182 2.88945 1.38864 3.39551 1.16016C3.90047 0.932176 4.44448 0.817383 5.0293 0.817383C5.35144 0.817425 5.66305 0.860169 5.95605 0.9375L6.24219 1.02637L6.24609 1.02734C6.63149 1.15789 6.98517 1.3644 7.34668 1.6543L7.41504 1.70996H7.42773C7.59314 1.8565 7.74576 1.98429 7.87402 2.13086C7.95092 2.21874 8.02809 2.31189 8.10547 2.41016L8.33789 2.71973C8.58415 3.08442 9.09598 3.15137 9.45215 2.92871L9.47656 2.91309L9.49707 2.8916C9.55098 2.83683 9.62759 2.75871 9.68359 2.6748L9.68457 2.67578C9.81952 2.47993 9.95037 2.31008 10.1162 2.1416L10.1211 2.13672L10.126 2.13086C10.2601 1.97759 10.4205 1.84451 10.5947 1.68945H10.6035L10.6719 1.63574C11.0142 1.36531 11.369 1.15637 11.7373 1.02539C12.1321 0.892068 12.5431 0.817438 12.9707 0.817383C13.5555 0.817383 14.0995 0.932175 14.6045 1.16016C15.1111 1.3889 15.5798 1.7326 15.9541 2.16992L16.0293 2.25684H16.0479C16.339 2.61322 16.5933 3.03354 16.7852 3.4873L16.8682 3.69629C17.0771 4.2762 17.1914 4.91575 17.1914 5.5752ZM17.6914 5.5752C17.6914 4.85725 17.5663 4.15907 17.3369 3.52344L17.3359 3.52148L17.2451 3.29297C17.0223 2.76585 16.723 2.27578 16.374 1.86523L16.2998 1.77734H16.2725C15.8592 1.31503 15.3547 0.950855 14.8105 0.705078C14.2379 0.446534 13.6231 0.317383 12.9707 0.317383C12.482 0.317438 12.0162 0.404081 11.5742 0.553711L11.5703 0.554688C11.1569 0.701684 10.7689 0.928558 10.4053 1.20996C10.3983 1.21275 10.391 1.21512 10.3838 1.21875C10.3518 1.23498 10.33 1.25486 10.3203 1.26367C10.3147 1.26877 10.3089 1.27411 10.3047 1.27832C10.1425 1.42448 9.92923 1.59991 9.75977 1.79102C9.56641 1.98744 9.41787 2.18298 9.27344 2.39258L9.26953 2.39648C9.24923 2.42742 9.21596 2.46244 9.16602 2.51367C9.13755 2.52901 9.10879 2.54013 9.0791 2.54688L9.20312 2.37598C9.51228 1.94414 9.87598 1.53652 10.292 1.20996L10.293 1.20898C11.0887 0.573855 11.9924 0.250104 12.9707 0.25C14.2759 0.25 15.4853 0.787144 16.376 1.78809C17.2503 2.7729 17.75 4.11136 17.75 5.5752C17.7499 7.08615 17.1998 8.47186 16.0098 9.93848L16.0088 9.93945C15.6258 10.4158 14.5724 11.393 13.3672 12.457C12.1698 13.5141 10.8446 14.6379 9.9375 15.3975L9.93457 15.3994C9.39102 15.8653 8.60934 15.869 8.04199 15.3975H8.04297C7.13582 14.6379 5.81075 13.5142 4.61328 12.457C3.40774 11.3928 2.35349 10.4158 1.9707 9.93945L1.96973 9.93848L1.75488 9.66406C0.717196 8.2994 0.250062 6.99337 0.25 5.5752C0.25 4.10908 0.730918 2.77244 1.62207 1.79004L1.625 1.78613C2.49438 0.78776 3.703 0.25 5.0293 0.25C6.00808 0.250104 6.91035 0.573991 7.68457 1.20703L7.68848 1.20996C8.11078 1.54147 8.49124 1.92905 8.79395 2.37109L8.91211 2.54395C8.84302 2.52561 8.78363 2.48872 8.75 2.4375L8.74414 2.42871C8.58044 2.20007 8.41556 1.99097 8.25 1.80176C8.07747 1.60461 7.85627 1.42416 7.69043 1.27441L7.61914 1.20996H7.58691C7.21395 0.920535 6.83336 0.698751 6.40918 0.554688H6.41016C5.98512 0.403564 5.51751 0.317438 5.0293 0.317383C4.37688 0.317383 3.76209 0.446534 3.18945 0.705078C2.61835 0.963008 2.09177 1.34881 1.65039 1.83984H1.64941C1.22702 2.31186 0.892441 2.88808 0.663086 3.52344C0.433662 4.15907 0.308594 4.85725 0.308594 5.5752C0.308626 6.22551 0.421164 6.85792 0.629883 7.47168L0.724609 7.7334C0.995291 8.45153 1.42945 9.16085 2.01758 9.88281V9.88379C2.33364 10.2905 3.08986 11.0153 3.98535 11.8037C5.32145 12.9989 6.97414 14.3952 8.05078 15.3066L8.07227 15.3281L8.08203 15.3359C8.34221 15.5521 8.6571 15.6777 9 15.6777C9.32524 15.6777 9.63915 15.5497 9.89746 15.335C10.9764 14.4419 12.6556 13.0218 14.0156 11.8027L14.0166 11.8018C14.8895 11.0158 15.6437 10.2911 15.96 9.88477L15.9609 9.88574C16.528 9.16567 16.9821 8.45513 17.2734 7.73633L17.2754 7.7334C17.545 7.03827 17.6914 6.31821 17.6914 5.5752Z" stroke="white" stroke-width="0.5"/>
<defs>
<radialGradient id="paint0_radial_110_246" cx="0" cy="0" r="1" gradientUnits="userSpaceOnUse" gradientTransform="translate(8.97312 15.1381) rotate(-90) scale(13.7099 13.4956)">
<stop stop-color="#3B4554"/>
<stop offset="1" stop-color="#080808"/>
</radialGradient>
</defs>
</svg>
