<svg width="20" height="20" viewBox="0 0 20 20" fill="none" xmlns="http://www.w3.org/2000/svg">
<path fill-rule="evenodd" clip-rule="evenodd" d="M18.1225 10.3152C16.007 8.19965 12.5447 8.23306 10.3889 10.3889C8.23303 12.5448 8.19963 16.007 10.3151 18.1226C12.4303 20.2377 15.8929 20.2047 18.0488 18.0488C20.2046 15.893 20.2376 12.4303 18.1225 10.3152ZM17.9608 14.1832C17.9568 14.5963 17.6187 14.9352 17.2052 14.9387L14.9593 14.9601L14.9379 17.2061C14.9336 17.6196 14.5958 17.9581 14.1824 17.9616C13.7693 17.9655 13.4368 17.6338 13.4411 17.2204L13.4625 14.9744L11.2166 14.9958C10.8031 15.0001 10.4714 14.6676 10.4753 14.2546C10.4793 13.8407 10.8177 13.503 11.2312 13.4994L13.4768 13.4776L13.4982 11.2317C13.5021 10.8178 13.8406 10.4801 14.2537 10.4761C14.6676 10.4722 14.9989 10.8043 14.995 11.2174L14.9736 13.4633L17.2195 13.4419C17.633 13.4384 17.9651 13.7697 17.9608 14.1832Z" fill="#91DBFF"/>
<path fill-rule="evenodd" clip-rule="evenodd" d="M1.4141e-05 6.42671C0.00895002 2.83596 3.04533 -0.0696802 6.69762 0.00127237C10.242 0.0712485 13.125 2.96078 13.125 6.44315C13.125 6.9928 13.0573 7.52506 12.9295 8.03238C11.7775 8.29231 10.6782 8.87404 9.7761 9.77612C8.92986 10.6224 8.36554 11.6421 8.08434 12.7162C7.62825 12.8198 7.15275 12.8777 6.66288 12.8849C5.63724 12.901 4.6523 12.6888 3.73488 12.258C3.50834 12.1519 3.23861 12.1949 3.05857 12.3664C2.32632 13.0609 1.25898 13.2925 0.309625 13.0033C0.920739 11.7516 1.00514 10.3175 0.531874 8.9906C0.527737 8.97921 0.522929 8.96668 0.517799 8.95562C0.172113 8.15496 -0.00180613 7.3045 1.4141e-05 6.42671ZM3.06222 7.40508C2.53782 7.40508 2.11204 6.98717 2.11204 6.47244C2.11204 5.95722 2.53798 5.53931 3.06222 5.53931C3.58712 5.53931 4.0124 5.95722 4.0124 6.47244C4.0124 6.98717 3.58695 7.40508 3.06222 7.40508ZM6.56293 7.40508C6.03803 7.40508 5.61275 6.98717 5.61275 6.47244C5.61275 5.95722 6.03819 5.53931 6.56293 5.53931C7.08733 5.53931 7.51311 5.95722 7.51311 6.47244C7.51311 6.98717 7.08716 7.40508 6.56293 7.40508ZM10.0631 7.40508C9.53873 7.40508 9.11295 6.98717 9.11295 6.47244C9.11295 5.95722 9.5389 5.53931 10.0631 5.53931C10.588 5.53931 11.0133 5.95722 11.0133 6.47244C11.0133 6.98717 10.5879 7.40508 10.0631 7.40508Z" fill="white"/>
</svg>
