<svg width="20" height="17" viewBox="0 0 20 17" fill="none" xmlns="http://www.w3.org/2000/svg">
<path d="M15.8678 11.813C16.297 10.7248 16.5001 9.63731 16.5001 8.31197C16.5001 6.30984 16.0365 4.85112 15.0303 3.11152C14.8328 2.78265 14.4119 2.67821 14.0849 2.87299C13.767 3.06776 13.6557 3.4792 13.8405 3.80877C14.7144 5.31125 15.1248 6.5639 15.1248 8.31197C15.1248 9.3148 14.9896 10.1546 14.7102 10.9718C14.6745 11.0749 14.699 11.1814 14.7754 11.2584L15.4182 11.9062C15.4854 11.974 15.5744 12.0015 15.6682 11.9817C15.7613 11.9627 15.8328 11.902 15.8678 11.813Z" fill="#2C2C33"/>
<path d="M16.1304 0.798875C15.8124 1.00283 15.7179 1.43543 15.9203 1.75583C17.2781 3.90193 17.8747 5.74809 17.8747 8.31197C17.8747 10.1624 17.5645 11.6387 16.881 13.1243C16.8313 13.2315 16.8523 13.3529 16.9357 13.4362L17.5561 14.0615C17.6205 14.1264 17.7045 14.1539 17.7949 14.1391C17.8852 14.1243 17.9566 14.0706 17.9965 13.9881C18.8613 12.2224 19.2479 10.4969 19.25 8.31691C19.2528 5.47992 18.5553 3.41921 17.0799 1.0113C17.0575 0.974599 16.6576 0.461541 16.1304 0.798875Z" fill="#2C2C33"/>
<path d="M11.765 5.85677C12.1571 6.63447 12.3791 7.4397 12.3791 8.31197C12.3791 8.44041 12.3749 8.56744 12.3651 8.69235C12.3588 8.77563 12.3861 8.85043 12.4449 8.90901L13.1795 9.65002C13.2537 9.72412 13.3553 9.74952 13.4554 9.71847C13.5548 9.68742 13.6248 9.60908 13.6445 9.50534C13.7166 9.11861 13.7544 8.7227 13.7544 8.31691C13.7544 7.21881 13.4862 6.20469 12.9897 5.22868C12.8175 4.88711 12.405 4.74808 12.0654 4.92169C11.4625 5.22938 11.7531 5.83419 11.765 5.85677Z" fill="#2C2C33"/>
<path fill-rule="evenodd" clip-rule="evenodd" d="M6.71194 3.1334L9.04519 5.48415C9.05415 5.49323 9.06351 5.5017 9.0732 5.50956L9.16003 5.59706C9.23985 5.67822 9.3547 5.70151 9.45973 5.65705C9.56477 5.6133 9.6292 5.51591 9.6292 5.40158V5.23785V2.44461C9.62927 2.43785 9.62928 2.43109 9.62922 2.42434C9.62606 2.04246 9.41742 1.68767 9.0837 1.5046C8.73567 1.31405 8.30572 1.3444 7.9878 1.58293L7.95769 1.6041L6.73295 2.61328C6.71962 2.62438 6.70734 2.63628 6.69611 2.64885L6.67763 2.66409C6.6153 2.71561 6.58169 2.78407 6.57749 2.86452C6.57329 2.94568 6.6006 3.01695 6.65732 3.07482L6.68751 3.10525C6.69543 3.11676 6.70337 3.12476 6.71194 3.1334ZM1.03147 4.84759C0.460067 4.84759 0 5.31125 0 5.88712V10.7375C0 11.3134 0.460067 11.7763 1.03147 11.7763H4.03066L7.94929 15.0198C8.30221 15.2746 8.71466 15.3268 9.0963 15.1109C9.42752 14.9203 9.6334 14.5611 9.6292 14.18V12.0579C9.6292 11.9817 9.60259 11.9161 9.54867 11.8624L2.66727 4.92875C2.61405 4.87511 2.54893 4.84759 2.4733 4.84759H1.03147Z" fill="white"/>
<path d="M1.86898 0.20113C1.60288 -0.0670434 1.16452 -0.0670434 0.897726 0.20113C0.631629 0.47001 0.631629 0.91179 0.897726 1.17996L16.0232 16.4228C16.2907 16.6924 16.727 16.6924 16.9945 16.4228C17.2606 16.1546 17.2606 15.7129 16.9945 15.4447L1.86898 0.20113Z" fill="#FF0000"/>
</svg>
