<svg width="13" height="12" viewBox="0 0 13 12" fill="none" xmlns="http://www.w3.org/2000/svg">
<path fill-rule="evenodd" clip-rule="evenodd" d="M1.35614 7.96601C0.6077 7.96601 0 7.36138 0 6.61737V4.69555C0 3.95155 0.6077 3.34746 1.35614 3.34746C2.15914 3.34746 1.91802 3.34746 2.72102 3.34746L6.68362 0.23372C6.90837 0.0813411 7.17458 0 7.44679 0C8.19578 0 8.80293 0.603552 8.80293 1.34809C8.80293 4.15436 8.80293 6.96063 8.80293 9.7669C8.80293 10.5109 8.19578 11.115 7.44679 11.115C7.17785 11.115 6.94164 11.0277 6.71089 10.897L2.72047 7.96601C1.91802 7.96601 2.15914 7.96601 1.35614 7.96601ZM9.50828 8.38085C9.39482 8.57987 9.46355 8.82877 9.6583 8.94644C9.8585 9.06412 10.1165 9.00176 10.2376 8.8022C10.8546 7.75019 11.1388 6.86845 11.1388 5.65755C11.1388 4.44665 10.8546 3.56437 10.2376 2.51236C10.1165 2.31334 9.8585 2.25044 9.6583 2.36811C9.46355 2.48633 9.39482 2.73469 9.50828 2.9337C10.044 3.84256 10.296 4.60011 10.296 5.65755C10.296 6.71498 10.044 7.47254 9.50828 8.38085ZM10.9124 1.11383C10.7171 1.23693 10.6593 1.49885 10.7831 1.69244C11.6161 2.99064 11.9816 4.10719 11.9816 5.65755C11.9816 7.20791 11.6161 8.32446 10.7831 9.62212C10.6593 9.81571 10.7171 10.0776 10.9124 10.2007C11.2354 10.4052 11.519 10.0809 11.4945 10.0727C12.4213 8.62759 12.8234 7.3771 12.825 5.66026C12.8261 3.9445 12.399 2.69836 11.4945 1.24235C11.4809 1.22012 11.2354 0.909937 10.9124 1.11383Z" fill="white"/>
</svg>
