<svg width="13" height="13" viewBox="0 0 13 13" fill="none" xmlns="http://www.w3.org/2000/svg">
<path fill-rule="evenodd" clip-rule="evenodd" d="M6.54936 12.2661L4.42489 10.1417L0.822297 12.7336C0.610123 12.8858 0.365223 12.841 0.174321 12.6507C-0.0160359 12.4598 -0.0607616 12.2149 0.0914147 12.0027L2.68332 8.4001L0.558852 6.27564C0.20432 5.9211 0.264318 5.42149 0.603578 5.08223C1.56518 4.12062 3.59638 3.62646 4.51871 4.54879L6.82535 2.24215C6.41573 1.68362 6.47518 0.901467 6.96553 0.411122C7.51369 -0.13704 8.41148 -0.13704 8.95964 0.411122L12.4139 3.86536C12.962 4.41352 12.962 5.31131 12.4139 5.85947C11.9235 6.34982 11.1414 6.40927 10.5829 5.99965L8.27621 8.30629C9.19854 9.22862 8.70438 11.2598 7.74277 12.2214C7.40351 12.5607 6.9039 12.6207 6.54936 12.2661ZM8.48129 0.890013C8.19658 0.605842 7.72805 0.605842 7.44388 0.890013C7.1597 1.17418 7.1597 1.64271 7.44388 1.92688C7.62441 2.10742 7.63423 2.3905 7.45206 2.57322L4.83779 5.18695C4.66216 5.36312 4.37526 5.36312 4.19963 5.18695L4.03982 5.02768C3.71256 4.70042 3.11312 4.70315 2.69096 4.77624C2.12698 4.87387 1.48882 5.15477 1.08247 5.56112C1.01102 5.63257 0.95702 5.71657 1.03774 5.79674L7.02825 11.7873C7.10843 11.868 7.19243 11.814 7.26388 11.7425C7.67023 11.3362 7.95113 10.698 8.04876 10.134C8.12185 9.71188 8.12458 9.11244 7.79732 8.78518L7.63805 8.62537C7.46188 8.44974 7.46188 8.16284 7.63805 7.98721L10.2518 5.37294C10.4345 5.19077 10.7176 5.20058 10.8981 5.38112C11.1823 5.6653 11.6508 5.6653 11.935 5.38112C12.2192 5.09695 12.2192 4.62842 11.935 4.34371L8.48129 0.890013Z" fill="white"/>
</svg>
