<svg width="17" height="17" viewBox="0 0 17 17" fill="none" xmlns="http://www.w3.org/2000/svg">
<path fill-rule="evenodd" clip-rule="evenodd" d="M8.61751 16.1398L5.82213 13.3444L1.08183 16.7549C0.802651 16.9551 0.480412 16.8962 0.229223 16.6458C-0.021249 16.3946 -0.0800986 16.0723 0.120853 15.7932L3.53128 11.0529L0.735908 8.25749C0.268696 7.791 0.347641 7.1336 0.79404 6.6872C2.05932 5.42192 4.73197 4.7717 5.94557 5.9853L8.98066 2.95022C8.44168 2.21531 8.5199 1.18615 9.1651 0.540954C9.88637 -0.180318 11.0677 -0.180318 11.789 0.540954L16.334 5.08605C17.0553 5.80732 17.0553 6.98863 16.334 7.7099C15.6896 8.35509 14.6597 8.43332 13.9248 7.89434L10.8897 10.9294C12.1033 12.143 11.4531 14.8157 10.1878 16.081C9.7414 16.5274 9.08472 16.6063 8.61751 16.1398Z" fill="white"/>
</svg>
