<svg width="16" height="16" viewBox="0 0 16 16" fill="none" xmlns="http://www.w3.org/2000/svg">
<path d="M1.89774 11.0812C-0.632579 8.55089 -0.632579 4.43227 1.89774 1.89774C4.42805 -0.632578 8.54667 -0.632578 11.0812 1.89774C13.2271 4.04364 13.5524 7.23716 12.057 9.73368C12.057 9.73368 11.9514 9.91532 12.095 10.0589C12.923 10.8869 15.4068 13.3707 15.4068 13.3707C16.0658 14.0297 16.2221 14.9506 15.6392 15.5378L15.5378 15.6392C14.9548 16.2221 14.0297 16.0658 13.3707 15.4068C13.3707 15.4068 10.8911 12.9272 10.0632 12.0992C9.91109 11.9472 9.72945 12.0528 9.72945 12.0528C7.23716 13.5482 4.03942 13.2229 1.89351 11.077L1.89774 11.0812ZM9.88152 9.88153C11.7529 8.01019 11.7529 4.96875 9.88152 3.09741C8.01019 1.22608 4.96874 1.22608 3.0974 3.09741C1.22607 4.96875 1.22607 8.01019 3.0974 9.88153C4.96874 11.7529 8.01019 11.7529 9.88152 9.88153Z" fill="white" fill-opacity="0.75"/>
</svg>
