<svg width="26" height="26" viewBox="0 0 26 26" fill="none" xmlns="http://www.w3.org/2000/svg">
<path d="M17.5214 25.5908C16.5711 25.6619 15.6856 25.3193 15.052 24.6857C14.4835 24.4568 11.3065 16.5904 10.9408 15.9588L17.0172 9.88223C17.3792 9.52023 17.3727 8.94489 17.0172 8.58935C16.6552 8.22735 16.0863 8.22735 15.7243 8.58935L9.64791 14.6659L1.87784 11.2139C0.636712 10.658 -0.0937137 9.43623 0.00969707 8.07868C0.119579 6.7276 1.03753 5.62869 2.34329 5.27962L21.6197 0.108062C22.7251 -0.182804 23.8693 0.121004 24.6773 0.929054C25.4789 1.73063 25.7827 2.87484 25.4918 3.98023L20.3204 23.2571C19.9714 24.5629 18.8724 25.4808 17.5214 25.5908Z" fill="white"/>
</svg>
