<svg width="20" height="20" viewBox="0 0 20 20" fill="none" xmlns="http://www.w3.org/2000/svg">
<path fill-rule="evenodd" clip-rule="evenodd" d="M6.16839 14.7778H1.48172C0.663053 14.777 0 14.1257 0 13.3224V10.4114C0.00171988 8.22353 1.6417 6.41152 3.78037 6.09474C2.5799 5.63774 1.72861 4.49317 1.72861 3.15342C1.72861 1.41241 3.16541 0 4.9386 0C6.71094 0 8.14792 1.41241 8.14792 3.15342C8.14792 4.49317 7.29748 5.63774 6.097 6.09474C7.04896 6.23581 7.902 6.6734 8.55556 7.30864C6.95349 8.68219 5.94047 10.7029 5.94047 12.9558C5.94047 13.5843 6.01962 14.1941 6.16839 14.7778Z" fill="white"/>
<path d="M19.1925 14.6098C19.1925 14.6098 19.1909 14.6088 19.1903 14.6077L18.38 13.8751C18.4074 13.6542 18.4217 13.4354 18.4217 13.2223C18.4217 13.0091 18.4074 12.7903 18.38 12.5694L19.1925 11.8347C19.4606 11.5863 19.5217 11.1923 19.34 10.8728L18.4459 9.35151C18.2668 9.0378 17.8774 8.88847 17.5207 8.99788L16.4691 9.32454C16.1125 9.05128 15.7278 8.83143 15.3232 8.66965L15.0803 7.60721C15.0008 7.25565 14.6778 7.00002 14.3122 7.00002H12.5209C12.1552 7.00002 11.8323 7.25565 11.7527 7.60669L11.5098 8.66965C11.1052 8.83143 10.7206 9.05128 10.3639 9.32454L9.31127 8.99788C8.9567 8.88951 8.5663 9.03728 8.38927 9.3484L7.49151 10.876C7.31132 11.1923 7.37244 11.5863 7.64324 11.8368L8.45355 12.5694C8.42562 12.7903 8.4114 13.0091 8.4114 13.2223C8.4114 13.4354 8.42562 13.6542 8.45302 13.8751L7.64061 14.6098C7.37244 14.8582 7.31132 15.2523 7.49309 15.5712L8.38716 17.0925C8.5663 17.4067 8.95512 17.5555 9.31232 17.4466L10.3639 17.12C10.7206 17.3932 11.1052 17.6131 11.5098 17.7749L11.7527 18.8368C11.8323 19.1889 12.1552 19.4445 12.5209 19.4445H14.3122C14.6778 19.4445 15.0008 19.1889 15.0803 18.8378L15.3232 17.7749C15.7278 17.6131 16.1125 17.3938 16.4691 17.12L17.5218 17.4466C17.8774 17.556 18.2668 17.4067 18.4443 17.0956L19.3421 15.568C19.5217 15.2523 19.4606 14.8582 19.1925 14.6098ZM13.4165 15.8149C11.964 15.8149 10.7823 14.6518 10.7823 13.2223C10.7823 11.7927 11.964 10.6297 13.4165 10.6297C14.8691 10.6297 16.0508 11.7927 16.0508 13.2223C16.0508 14.6518 14.8691 15.8149 13.4165 15.8149Z" fill="#91DBFF"/>
</svg>
