<svg width="20" height="20" viewBox="0 0 20 20" fill="none" xmlns="http://www.w3.org/2000/svg">
<path fill-rule="evenodd" clip-rule="evenodd" d="M17.8333 19.25H11.2231C10.441 19.25 9.80673 18.6033 9.80673 17.8063V14.9187C9.8087 12.7481 11.3763 10.9505 13.4206 10.6366C12.2732 10.1834 11.4592 9.04798 11.4592 7.71854C11.4592 5.99068 12.8335 4.58988 14.5286 4.58988C16.2232 4.58988 17.5975 5.99068 17.5975 7.71854C17.5975 9.04798 16.7835 10.1834 15.6361 10.6366C17.6802 10.9505 19.248 12.7483 19.25 14.9187V17.8063C19.25 18.6035 18.6152 19.25 17.8333 19.25Z" fill="white"/>
<path fill-rule="evenodd" clip-rule="evenodd" d="M1.41633 2.40573C1.41794 1.87497 1.84016 1.44351 2.36085 1.44351H11.5516C12.0723 1.44515 12.4956 1.87552 12.4956 2.40627V3.8465C12.925 3.59517 13.4031 3.42069 13.912 3.34221V2.40591C13.912 1.07757 12.8548 0 11.5516 0H2.36085C1.05714 0 0 1.07757 0 2.40591V14.1036C0 15.432 1.05714 16.5095 2.36085 16.5095H8.79076V14.9189C8.79076 14.4719 8.84449 14.0374 8.94548 13.622H2.36068C1.83998 13.6203 1.41615 13.19 1.41615 12.6592L1.41633 2.40573ZM7.9184 15.0657C7.9184 14.6669 7.60111 14.344 7.21041 14.344C6.819 14.344 6.5019 14.6669 6.5019 15.0657C6.5019 15.4646 6.81917 15.7879 7.21041 15.7879C7.60129 15.7879 7.9184 15.4645 7.9184 15.0657Z" fill="#6C89A6"/>
<path d="M10.7513 10.5873V9.62454C10.7513 8.12482 9.62875 6.89157 8.1929 6.75103C8.87134 6.38947 9.33475 5.66525 9.33475 4.8308C9.33475 3.63423 8.38378 2.6649 7.20989 2.6649C6.03653 2.6649 5.08555 3.63423 5.08555 4.8308C5.08555 5.66525 5.54842 6.38947 6.22686 6.75103C4.79172 6.89175 3.66905 8.125 3.66905 9.62454V10.5873H10.7513Z" fill="white"/>
</svg>
