<svg width="32" height="32" viewBox="0 0 32 32" fill="none" xmlns="http://www.w3.org/2000/svg">
<path fill-rule="evenodd" clip-rule="evenodd" d="M9.73913 12.5217C9.73913 13.32 10.0356 15.2815 11.1532 15.2815C12.248 15.2815 12.5445 13.3428 12.5674 12.5217C12.5445 11.7234 12.248 9.76194 11.1532 9.76194C10.0356 9.76194 9.73913 11.7234 9.73913 12.5217ZM20.8696 15.3272C21.9872 15.3272 22.2609 13.32 22.2609 12.5217C22.2609 11.7234 21.9872 9.73913 20.8696 9.71632C19.7748 9.73913 19.5011 11.7234 19.5011 12.5217C19.5011 13.32 19.7748 15.3272 20.8696 15.3272ZM22.8539 19.4555C20.6415 20.2766 18.3607 20.8468 16.0114 20.8468C13.6622 20.8468 11.3585 20.2766 9.16892 19.4555C9.12331 19.4555 9.07769 19.4555 9.05488 19.4555C8.64433 19.4555 8.32502 19.7748 8.32502 20.1853C8.32502 20.3222 8.37063 20.459 8.46187 20.5731C9.99002 23.31 12.8867 25.0207 16.0114 25.0663C19.1361 25.0207 22.01 23.31 23.5609 20.5731C23.6294 20.459 23.675 20.3222 23.675 20.1853C23.675 19.7748 23.3557 19.4555 22.9679 19.4555C22.9223 19.4555 22.8767 19.4555 22.8539 19.4555ZM16.0114 0C24.8382 0 32 7.1618 32 16.0114C32 24.8382 24.8382 32 16.0114 32C7.1618 32 0 24.8382 0 16.0114C0 7.1618 7.1618 0 16.0114 0ZM16.0114 1.59658C23.9715 1.59658 30.4262 8.05132 30.4262 16.0114C30.4262 23.9715 23.9715 30.4262 16.0114 30.4262C8.05132 30.4262 1.59658 23.9715 1.59658 16.0114C1.59658 8.05132 8.05132 1.59658 16.0114 1.59658Z" fill="white"/>
</svg>
